<?xml version="1.0" encoding="UTF-8"?>
<svg version="1.1" xmlns="http://www.w3.org/2000/svg" width="1344" height="768">
<path d="M0 0 C443.52 0 887.04 0 1344 0 C1344 253.44 1344 506.88 1344 768 C900.48 768 456.96 768 0 768 C0 514.56 0 261.12 0 0 Z " fill="#5A6365" transform="translate(0,0)"/>
<path d="M0 0 C1.35323719 -0.00389742 2.70647318 -0.0082342 4.05970764 -0.01298523 C6.88286319 -0.0204048 9.70589358 -0.02018715 12.52905273 -0.01489258 C16.12082333 -0.00909956 19.71207797 -0.0260452 23.30376339 -0.04923725 C26.09472067 -0.06407113 28.88555637 -0.06483336 31.6765461 -0.06172752 C33.63610742 -0.06248026 35.59565007 -0.07626886 37.55516052 -0.09040833 C50.377704 -0.02448169 59.38101153 2.78463822 68.9765625 11.328125 C76.49583912 18.9993062 77.18135607 26.37245907 77.15234375 36.6237793 C77.06062896 43.01916602 76.65674867 48.44571429 73.91015625 54.30078125 C73.38421875 55.43386719 72.85828125 56.56695312 72.31640625 57.734375 C63.71084106 75.34821196 49.93600495 89.34515319 36.1640625 103.0390625 C33.8842104 105.30838632 31.68353428 107.59945289 29.59765625 110.05078125 C26.85217503 113.24263247 24.0242601 116.33996952 21.16015625 119.42578125 C5.22052279 136.94239519 -11.03633698 157.39537109 -10.3046875 182.2421875 C-9.59343795 192.36779473 -5.71244919 200.86687309 -0.08984375 209.30078125 C-15.32817348 209.90941276 -28.82209458 207.62984137 -40.77734375 197.61328125 C-50.63365881 188.27938572 -55.98078558 177.63766354 -56.56054688 163.98706055 C-56.83191057 143.73654456 -46.45143983 129.52176042 -33.08984375 115.30078125 C-28.84756427 110.95005904 -24.54524833 106.66075707 -20.20825195 102.40454102 C-15.8234285 98.09391231 -11.62246681 93.7244012 -7.62036133 89.05615234 C-5.55452446 86.6868164 -3.34132807 84.49301598 -1.08984375 82.30078125 C4.18574229 77.0812333 9.03006787 71.60624552 13.72265625 65.86328125 C15.91015625 63.30078125 15.91015625 63.30078125 17.91015625 62.30078125 C18.57882745 60.63491779 19.24511631 58.96809769 19.91015625 57.30078125 C21.07543734 55.54231408 22.28554412 53.81285659 23.53515625 52.11328125 C26.0973135 49.00972026 26.0973135 49.00972026 26.91015625 45.30078125 C25.31082018 44.66352162 23.70527493 44.04184771 22.09765625 43.42578125 C21.20433594 43.07773437 20.31101562 42.7296875 19.390625 42.37109375 C10.1498653 39.52937865 1.13391974 38.95357292 -8.50512695 38.98510742 C-10.52154481 38.98827215 -12.53649593 38.96469593 -14.55273438 38.93945312 C-25.2457497 38.9341934 -34.94950246 40.23017284 -44.52734375 45.23828125 C-45.47480469 45.72167969 -46.42226563 46.20507812 -47.3984375 46.703125 C-50.18409763 48.35673167 -52.61227717 50.21890589 -55.08984375 52.30078125 C-55.8655282 39.13569239 -53.5480008 27.67585707 -45.08984375 17.30078125 C-44.538125 16.61371094 -43.98640625 15.92664063 -43.41796875 15.21875 C-32.00858066 2.46851502 -16.24276497 -0.01158036 0 0 Z " fill="#51A4D3" transform="translate(629.08984375,281.69921875)"/>
<path d="M0 0 C15.3995729 -0.60699046 28.27544571 2.03866251 40.25 12.1875 C49.6245085 21.09181371 55.05789091 32.78146673 55.5 45.75 C54.48728983 75.34727128 33.71368087 92.50432727 14.03320312 111.9309082 C9.3139303 116.60158497 4.72730453 121.28431335 0.53515625 126.44140625 C-1.16669341 128.16923835 -2.78747114 129.03948531 -5 130 C-5 130.66 -5 131.32 -5 132 C-5.66 132 -6.32 132 -7 132 C-7.268125 132.598125 -7.53625 133.19625 -7.8125 133.8125 C-8.99917406 135.99847854 -10.09599113 137.41332594 -12 139 C-12.66 139 -13.32 139 -14 139 C-14.268125 139.804375 -14.53625 140.60875 -14.8125 141.4375 C-15.204375 142.283125 -15.59625 143.12875 -16 144 C-16.99 144.33 -17.98 144.66 -19 145 C-23.7098381 142.33791759 -28.95461439 138.97532827 -30.8125 133.6875 C-30.874375 133.130625 -30.93625 132.57375 -31 132 C-31.66 132 -32.32 132 -33 132 C-36.90079196 123.2371495 -40.10864173 115.00370289 -37.234375 105.45703125 C-35.79742156 102.59676634 -34.13971035 100.87852248 -31.8125 98.6875 C-28.32949914 95.32078375 -25.07768672 91.88845189 -21.93359375 88.20703125 C-20.03980542 86.04543447 -18.07660139 83.96123912 -16.09960938 81.87597656 C-6.93005829 72.12936521 1.33311146 61.6726892 6 49 C6.31710937 48.20078125 6.63421875 47.4015625 6.9609375 46.578125 C10.61225709 35.79165794 11.0401968 21.73131986 6.75 11.125 C4.79985381 7.20248373 2.62820368 3.50427158 0 0 Z " fill="#97C4B3" transform="translate(712,282)"/>
<path d="M0 0 C0.33 0 0.66 0 1 0 C1.15855469 0.845625 1.31710937 1.69125 1.48046875 2.5625 C2.78429077 8.9015242 4.10563833 14.12843138 7.9140625 19.4140625 C9 21 9 21 10 24 C11.83193403 25.03885082 11.83193403 25.03885082 14 26 C15.49175537 27.06593201 16.96984813 28.15111732 18.4375 29.25 C36.83956475 42.20958001 60.1294308 46.60562901 82.29003906 43.69970703 C93.14042001 41.6822866 102.66423777 36.67897449 112 31 C112.8460309 43.54005807 110.78089885 54.37447512 102.578125 64.234375 C102.05734375 64.81703125 101.5365625 65.3996875 101 66 C100.49984375 66.60328125 99.9996875 67.2065625 99.484375 67.828125 C91.29730911 76.96902381 78.68773099 81.23538226 66.70140076 82.29031372 C63.18448828 82.40917973 59.67905899 82.44213318 56.16015625 82.43359375 C54.87620468 82.4388356 53.59225311 82.44407745 52.26939392 82.44947815 C49.57085214 82.45833526 46.87260745 82.45607183 44.17407227 82.44604492 C40.75400771 82.43456103 37.33497673 82.45479433 33.91504765 82.48396206 C30.60086709 82.50695375 27.28691404 82.49984733 23.97265625 82.49609375 C22.76497086 82.50732773 21.55728546 82.51856171 20.31300354 82.53013611 C5.76922557 82.41267521 -4.59010389 78.40989611 -14.8125 68.1875 C-21.57573294 58.33250343 -22.23613328 48.57267993 -20.3125 36.9375 C-17.08201551 23.07333742 -9.29797094 10.63750913 0 0 Z " fill="#8FC5B6" transform="translate(655,409)"/>
<path d="M0 0 C1.35323719 -0.00389742 2.70647318 -0.0082342 4.05970764 -0.01298523 C6.88286319 -0.0204048 9.70589358 -0.02018715 12.52905273 -0.01489258 C16.12082333 -0.00909956 19.71207797 -0.0260452 23.30376339 -0.04923725 C26.09472067 -0.06407113 28.88555637 -0.06483336 31.6765461 -0.06172752 C33.63610742 -0.06248026 35.59565007 -0.07626886 37.55516052 -0.09040833 C50.377704 -0.02448169 59.38101153 2.78463822 68.9765625 11.328125 C76.49583912 18.9993062 77.18135607 26.37245907 77.15234375 36.6237793 C76.92188354 52.69405793 68.90370153 67.68788131 57.91015625 79.30078125 C56.92015625 79.79578125 56.92015625 79.79578125 55.91015625 80.30078125 C55.82378906 79.68332031 55.73742187 79.06585938 55.6484375 78.4296875 C54.02287766 68.6315883 49.6946275 59.55350929 41.53515625 53.5546875 C31.55530278 46.96288088 21.59580154 42.77853985 9.91015625 40.30078125 C9.17015381 40.12804687 8.43015137 39.9553125 7.66772461 39.77734375 C2.48060532 38.88090667 -2.80094781 39.07527255 -8.05249023 39.06054688 C-10.12200389 39.05092235 -12.19048793 39.01989967 -14.25976562 38.98828125 C-25.04837157 38.90094935 -34.86010142 40.18342638 -44.52734375 45.23828125 C-45.47480469 45.72167969 -46.42226563 46.20507812 -47.3984375 46.703125 C-50.18409763 48.35673167 -52.61227717 50.21890589 -55.08984375 52.30078125 C-55.8655282 39.13569239 -53.5480008 27.67585707 -45.08984375 17.30078125 C-44.538125 16.61371094 -43.98640625 15.92664063 -43.41796875 15.21875 C-32.00858066 2.46851502 -16.24276497 -0.01158036 0 0 Z " fill="#74BBE0" transform="translate(629.08984375,281.69921875)"/>
<path d="M0 0 C0.33 0 0.66 0 1 0 C1.15855469 0.845625 1.31710937 1.69125 1.48046875 2.5625 C2.78429077 8.9015242 4.10563833 14.12843138 7.9140625 19.4140625 C9 21 9 21 10 24 C11.83193403 25.03885082 11.83193403 25.03885082 14 26 C15.49175537 27.06593201 16.96984813 28.15111732 18.4375 29.25 C34.80586863 40.7773577 52.55317803 43.63042708 72 45 C72 45.33 72 45.66 72 46 C70.98421875 46.18175781 69.9684375 46.36351562 68.921875 46.55078125 C51.53814991 49.70200583 34.1677883 53.52358581 19 63 C18.09636719 63.53496094 17.19273437 64.06992187 16.26171875 64.62109375 C10.57148062 68.07835616 5.11851227 71.67264112 1 77 C1 77.66 1 78.32 1 79 C-7.12465696 76.4610447 -14.10481844 70.2113268 -18.19140625 62.85546875 C-23.16667486 52.12483715 -21.76769488 40.02199062 -18 29.1015625 C-13.81544439 18.39240373 -7.56634014 8.65640609 0 0 Z " fill="#74B7AC" transform="translate(655,409)"/>
<path d="M0 0 C13.00394126 5.91679327 21.36804233 12.18660417 27.09765625 25.5625 C28.40824913 29.10280285 29.53238938 32.19305125 29 36 C27.55204962 38.06592298 25.9407558 39.55157314 24.0390625 41.20703125 C21.31610391 43.6013569 19.09299619 46.32765579 16.7734375 49.10546875 C14.69193324 51.32910215 12.41084294 53.14455603 10 55 C9.97421875 54.18917969 9.9484375 53.37835938 9.921875 52.54296875 C9.46840402 43.68997843 8.65994834 34.43160726 2 28 C2 27.34 2 26.68 2 26 C1.46375 25.7525 0.9275 25.505 0.375 25.25 C-2.56424252 23.70303025 -5.25754408 21.86985631 -8 20 C-12.29238623 21.65091778 -14.8793915 24.73754566 -18 28 C-18.66 27.67 -19.32 27.34 -20 27 C-18.7121669 25.51749445 -17.41960936 24.03909182 -16.125 22.5625 C-15.40570312 21.73878906 -14.68640625 20.91507812 -13.9453125 20.06640625 C-12 18 -12 18 -10 17 C-9.32882722 15.33514285 -8.66300385 13.66812713 -8 12 C-6.85782033 10.2405685 -5.66837885 8.51106141 -4.4375 6.8125 C-2.02799361 3.52121677 -2.02799361 3.52121677 0 0 Z " fill="#2F78B0" transform="translate(657,327)"/>
<path d="M0 0 C1.26833538 2.53667076 0.96252346 4.1113823 0.8125 6.9375 C0.73218706 12.47179189 2.02564475 16.70442497 4.125 21.78515625 C5 24 5 24 5 26 C5.66 26 6.32 26 7 26 C10 30.38461538 10 30.38461538 10 33 C10.53625 33.2475 11.0725 33.495 11.625 33.75 C14.56424252 35.29696975 17.25754408 37.13014369 20 39 C17.71206762 42.99092412 15.09605857 46.65880191 12.3125 50.3125 C11.89677734 50.86228516 11.48105469 51.41207031 11.05273438 51.97851562 C10.03735842 53.32067925 9.01898747 54.66057622 8 56 C-4.45965911 49.54846832 -12.90151345 43.15243447 -17.5546875 29.43359375 C-19.11515421 20.90578008 -19.11515421 20.90578008 -16.96728516 17.23510742 C-15.51961941 15.50676134 -13.99753059 13.93999404 -12.375 12.375 C-11.85292969 11.84132813 -11.33085938 11.30765625 -10.79296875 10.7578125 C-9.21412726 9.15168239 -7.6098866 7.57495235 -6 6 C-4.86591325 4.86846319 -3.73304385 3.73570459 -2.6015625 2.6015625 C-1.74304688 1.74304688 -0.88453125 0.88453125 0 0 Z " fill="#538F83" transform="translate(674,388)"/>
<path d="M0 0 C13.02868648 5.92805235 21.31555776 12.19102196 27.10546875 25.55078125 C28.45626728 29.24925582 28.93689354 32.02429305 29 36 C26.5625 38.5 26.5625 38.5 24 40 C24.06960938 38.80503906 24.06960938 38.80503906 24.140625 37.5859375 C24.29976141 32.91414708 24.4233939 29.06856556 22.6875 24.6875 C15.66720958 17.66720958 5.06061892 11.00606189 -5 10 C-3.66306612 6.40056264 -2.00519395 3.26874082 0 0 Z " fill="#22659B" transform="translate(657,327)"/>
<path d="M0 0 C0.33 0.99 0.66 1.98 1 3 C-1.3125 6.1875 -1.3125 6.1875 -4 9 C-4.66 9 -5.32 9 -6 9 C-6.33 9.99 -6.66 10.98 -7 12 C-9.5625 13.6875 -9.5625 13.6875 -12 15 C-10.54189378 11.60534645 -8.66233272 9.47748287 -6 6.9375 C-3.62557202 4.66346144 -1.83652048 2.75478071 0 0 Z " fill="#7AB3A3" transform="translate(687,373)"/>
<path d="M0 0 C0.33 1.32 0.66 2.64 1 4 C0.01 4.33 -0.98 4.66 -2 5 C-2.33 5.99 -2.66 6.98 -3 8 C-3.66 8 -4.32 8 -5 8 C-5.33 7.01 -5.66 6.02 -6 5 C-4.02 3.35 -2.04 1.7 0 0 Z " fill="#9BCFBD" transform="translate(766,440)"/>
<path d="M0 0 C0.99 0.495 0.99 0.495 2 1 C2.59355614 3.64860427 2.74209269 6.29197322 3 9 C2.01 9.66 1.02 10.32 0 11 C0 7.37 0 3.74 0 0 Z " fill="#326798" transform="translate(683,354)"/>
<path d="M0 0 C0 3.58912412 -0.66436554 4.10857029 -3 6.6875 C-3.556875 7.31011719 -4.11375 7.93273437 -4.6875 8.57421875 C-5.120625 9.04472656 -5.55375 9.51523437 -6 10 C-6.66 9.67 -7.32 9.34 -8 9 C-5.36 6.03 -2.72 3.06 0 0 Z " fill="#4D6274" transform="translate(683,365)"/>
<path d="M0 0 C0.99 0.33 1.98 0.66 3 1 C0.36 3.64 -2.28 6.28 -5 9 C-5.66 8.67 -6.32 8.34 -7 8 C-4.69 5.36 -2.38 2.72 0 0 Z " fill="#468DBC" transform="translate(644,346)"/>
<path d="M0 0 C0.33 0.99 0.66 1.98 1 3 C-0.4375 5.1875 -0.4375 5.1875 -2 7 C-3.32 6.67 -4.64 6.34 -6 6 C-4.02 4.02 -2.04 2.04 0 0 Z " fill="#83B8A9" transform="translate(694,366)"/>
<path d="M0 0 C3.0916909 2.52956528 3.90931332 5.22454612 5 9 C4.34 9 3.68 9 3 9 C3 8.34 3 7.68 3 7 C2.34 7 1.68 7 1 7 C1 5.35 1 3.7 1 2 C0.34 1.67 -0.32 1.34 -1 1 C-0.67 0.67 -0.34 0.34 0 0 Z " fill="#245D94" transform="translate(679,345)"/>
</svg>
