<?xml version="1.0" encoding="UTF-8"?>
<svg version="1.1" xmlns="http://www.w3.org/2000/svg" width="1344" height="768">
<path d="M0 0 C443.52 0 887.04 0 1344 0 C1344 253.44 1344 506.88 1344 768 C900.48 768 456.96 768 0 768 C0 514.56 0 261.12 0 0 Z " fill="#5B6366" transform="translate(0,0)"/>
<path d="M0 0 C7.00461717 1.63441067 11.05628894 3.92812778 15 10 C18.12085056 15.45148576 20.14473921 20.13719468 20.1875 26.5 C20.20167969 27.4590625 20.21585938 28.418125 20.23046875 29.40625 C20 32 20 32 18 35 C17.34 35 16.68 35 16 35 C15.814375 35.66 15.62875 36.32 15.4375 37 C12.85868986 42.38186465 8.49719087 46.40208069 4.4453125 50.7265625 C-11.33038976 67.61494441 -27.06758741 86.44253257 -26.2578125 110.84375 C-25.53533853 119.68858285 -21.95020265 127.17013403 -18 135 C-33.72505802 135.66366013 -44.72569778 133.78535109 -57 123 C-66.75618714 112.62839475 -70.49094981 101.57546725 -70.25 87.46484375 C-69.10409691 71.58334304 -58.58536378 59.77081743 -48.296875 48.515625 C-46.83457423 46.91405749 -45.38510185 45.30061203 -43.953125 43.671875 C-38.66422412 37.66718302 -33.0633281 32.03166863 -27.3840332 26.40112305 C-22.30182234 21.34595549 -17.58473311 16.09164194 -12.98828125 10.59375 C-12.29089844 9.7790625 -11.59351563 8.964375 -10.875 8.125 C-10.25367188 7.38507813 -9.63234375 6.64515625 -8.9921875 5.8828125 C-6.7732495 3.78569854 -4.84359952 3.03488376 -2 2 C-1.34 1.34 -0.68 0.68 0 0 Z " fill="#6EB3DA" transform="translate(649,295)"/>
<path d="M0 0 C15.30249137 -0.73256608 27.91419442 2.90106812 39.8125 12.75 C48.91651849 21.31657196 53.01190061 31.85656817 53.5 44.1875 C52.87806016 69.86843257 32.67025555 86.50081429 15.6875 103.3125 C13.00096915 105.97232135 10.31786134 108.63552979 7.63671875 111.30078125 C7.029384 111.89981766 6.42204926 112.49885406 5.79631042 113.11604309 C3.25939442 115.63829005 0.94910644 118.06669215 -1.22729492 120.91870117 C-2.10478394 121.94894409 -2.10478394 121.94894409 -3 123 C-3.99 123 -4.98 123 -6 123 C-6.33 124.32 -6.66 125.64 -7 127 C-8.98 127.495 -8.98 127.495 -11 128 C-11 128.99 -11 129.98 -11 131 C-12.65 131.33 -14.3 131.66 -16 132 C-16.33 133.65 -16.66 135.3 -17 137 C-24.36283053 134.0003283 -30.98765493 125.62486324 -34.11328125 118.44140625 C-35.99018582 112.59720576 -37.43321438 106.93157487 -34.625 101.1875 C-33 99 -33 99 -31 97 C-30.72542969 96.23300781 -30.45085938 95.46601563 -30.16796875 94.67578125 C-28.73862848 91.40120571 -26.8998182 89.64010332 -24.3125 87.1875 C-19.96103325 82.95414449 -15.86915677 78.67622014 -12 74 C-11.37907471 73.2577417 -11.37907471 73.2577417 -10.74560547 72.50048828 C-4.07100819 64.47437397 1.62351528 56.53849234 6 47 C6.35964844 46.23042969 6.71929688 45.46085937 7.08984375 44.66796875 C10.98209772 34.42613917 10.80196952 20.15490557 6.75 10.0625 C4.94531598 6.28046157 2.68708222 3.20957043 0 0 Z " fill="#96C1B2" transform="translate(711,234)"/>
<path d="M0 0 C0.33 0 0.66 0 1 0 C1.08636719 0.7734375 1.17273438 1.546875 1.26171875 2.34375 C2.20731343 9.35329592 3.52462895 14.4779696 8 20 C8.45890625 20.58136719 8.9178125 21.16273438 9.390625 21.76171875 C21.47706009 35.34369758 42.25625981 41.04862288 59.66796875 42.25390625 C77.02260677 42.78499586 91.53618331 38.64254446 106 29 C106.75257531 41.59866809 103.83613144 52.01525187 96 62 C88.68046592 70.20292612 77.13846803 76.47719705 66.08000183 77.18757629 C62.48154666 77.26449616 58.8883302 77.27709918 55.2890625 77.265625 C53.95299204 77.26697498 52.61692206 77.26891828 51.28085327 77.27142334 C48.48861995 77.274361 45.69651517 77.27012232 42.90429688 77.26074219 C39.34833807 77.24937059 35.79268202 77.25590105 32.23673439 77.26788712 C29.47927629 77.2751616 26.72188832 77.27279196 23.96442795 77.26763153 C22.02312776 77.265672 20.0818247 77.27168459 18.14053345 77.27789307 C6.26991212 77.21542504 -3.87072456 75.66497389 -12.859375 67.26171875 C-19.95837914 59.33684036 -21.3313207 51.95520009 -21.203125 41.58203125 C-20.37253874 26.93496201 -10.30479016 10.30479016 0 0 Z " fill="#8FC4B7" transform="translate(658,353)"/>
<path d="M0 0 C1.93797455 -0.01354271 1.93797455 -0.01354271 3.9151001 -0.02735901 C6.64166752 -0.04377003 9.36811334 -0.05153438 12.09472656 -0.05444336 C15.55547265 -0.05981404 19.01504433 -0.09747112 22.47546005 -0.14318752 C25.81696323 -0.18043411 29.15829692 -0.18148769 32.5 -0.1875 C34.33809235 -0.21679848 34.33809235 -0.21679848 36.21331787 -0.24668884 C48.97854927 -0.1806331 58.25065544 3.99998743 67.22265625 12.85546875 C73.80189678 20.07357932 74.20808795 26.70237061 73.828125 36.2578125 C72.89974508 50.93616214 64.22512502 65.57397153 54.515625 76.37109375 C53.855625 76.37109375 53.195625 76.37109375 52.515625 76.37109375 C52.51175781 75.46230469 52.51175781 75.46230469 52.5078125 74.53515625 C52.11970565 66.1261745 49.28485457 60.13362842 43.31640625 54.17578125 C23.53106666 37.41718443 -0.75448981 35.81416101 -25.484375 37.37109375 C-34.35551125 38.64655432 -42.24263126 42.11727966 -49.484375 47.37109375 C-50.474375 48.03109375 -51.464375 48.69109375 -52.484375 49.37109375 C-53.14424143 36.81530194 -51.70783825 27.29235905 -43.45703125 17.5 C-31.02579986 4.08411662 -17.93022482 0.07795304 0 0 Z " fill="#70B7DC" transform="translate(632.484375,233.62890625)"/>
<path d="M0 0 C0.33 0 0.66 0 1 0 C1.08636719 0.7734375 1.17273438 1.546875 1.26171875 2.34375 C2.20731343 9.35329592 3.52462895 14.4779696 8 20 C8.45890625 20.58136719 8.9178125 21.16273438 9.390625 21.76171875 C20.7550522 34.53235033 39.68911888 39.96493662 56 42 C55.01 42.495 55.01 42.495 54 43 C54 43.99 54 44.98 54 46 C53.45698242 46.15557373 52.91396484 46.31114746 52.35449219 46.47143555 C23.75878845 54.66254424 23.75878845 54.66254424 0 72 C-0.33 72.66 -0.66 73.32 -1 74 C-9.14209046 71.12632101 -14.5330862 66.40520321 -18.75 58.875 C-22.502191 50.24496071 -22.26615185 39.51150222 -19.1640625 30.68359375 C-14.44980632 19.8154931 -8.4648476 8.4648476 0 0 Z " fill="#74B6AC" transform="translate(658,353)"/>
<path d="M0 0 C0.66 0 1.32 0 2 0 C4.00488281 0.26147461 4.00488281 0.26147461 6 1 C7.09667969 2.67407227 7.09667969 2.67407227 7.921875 4.81640625 C8.37626953 5.96206055 8.37626953 5.96206055 8.83984375 7.13085938 C9.14019531 7.93330078 9.44054687 8.73574219 9.75 9.5625 C10.06582031 10.36880859 10.38164063 11.17511719 10.70703125 12.00585938 C11.48523782 13.99853983 12.24444266 15.99862199 13 18 C13.47179687 16.948125 13.47179687 16.948125 13.953125 15.875 C16.51977177 10.18508426 19.16659142 4.5618761 22 -1 C22.66 -1 23.32 -1 24 -1 C21.94554955 6.33245297 19.42342932 13.3830883 16.5625 20.4375 C16.18029297 21.41654297 15.79808594 22.39558594 15.40429688 23.40429688 C15.02466797 24.34208984 14.64503906 25.27988281 14.25390625 26.24609375 C13.91689697 27.08841553 13.5798877 27.9307373 13.23266602 28.79858398 C11.81728464 31.32631103 10.45319322 32.4907112 8 34 C5.74609375 34.44140625 5.74609375 34.44140625 3.4375 34.5625 C-0.04580584 34.75634333 -0.94190251 34.96126834 -4 37 C-6.1875 36.625 -6.1875 36.625 -8 36 C-8 35.67 -8 35.34 -8 35 C-8.68707031 34.89042969 -9.37414062 34.78085937 -10.08203125 34.66796875 C-11.43361328 34.43013672 -11.43361328 34.43013672 -12.8125 34.1875 C-13.70582031 34.03667969 -14.59914063 33.88585937 -15.51953125 33.73046875 C-18.23775162 32.92998496 -19.34411705 32.2781919 -21 30 C-21.38991688 25.63293092 -21.46324069 23.69486103 -19 20 C-18.17567358 16.48055874 -18.17567358 16.48055874 -18 13 C-18.66 12.34 -19.32 11.68 -20 11 C-20.66549077 6.59112363 -20.47535089 4.67108361 -17.875 1 C-12.82502412 -2.74478887 -5.81001473 -0.75232242 0 0 Z " fill="#5F6566" transform="translate(902,482)"/>
<path d="M0 0 C11.25526848 3.20368335 20.47308378 11.13157538 26.8125 20.75 C28.51789163 25.41738761 28.74527697 30.0636434 29 35 C28.34 35 27.68 35 27 35 C26.79246094 35.52335937 26.58492187 36.04671875 26.37109375 36.5859375 C24.40698165 40.04411777 21.77453043 42.7356073 19.0625 45.625 C18.52431641 46.21023438 17.98613281 46.79546875 17.43164062 47.3984375 C15.02348147 49.98772823 12.97037778 52.01974815 10 54 C10.33 53.01 10.66 52.02 11 51 C11.76731207 43.32687933 10.65437031 37.73524455 7 31 C6.67 30.31035156 6.34 29.62070312 6 28.91015625 C4.14143834 25.36001307 1.71219265 22.74239603 -2 21.1328125 C-4.38260338 20.36143622 -4.38260338 20.36143622 -8 20 C-10.05004839 21.2106557 -10.05004839 21.2106557 -11 23 C-11.99 22.67 -12.98 22.34 -14 22 C-13.484375 21.38125 -12.96875 20.7625 -12.4375 20.125 C-9.63732854 16.53503659 -7.1158152 12.7954878 -4.5859375 9.01171875 C-4.06257812 8.34785156 -3.53921875 7.68398438 -3 7 C-2.34 7 -1.68 7 -1 7 C-0.67 4.69 -0.34 2.38 0 0 Z " fill="#3378AF" transform="translate(657,276)"/>
<path d="M0 0 C0.66 0.66 1.32 1.32 2 2 C1.360625 2.433125 0.72125 2.86625 0.0625 3.3125 C-2.26746003 4.91239177 -2.26746003 4.91239177 -3 8 C-3.68567158 16.39947683 -1.57602229 23.3694739 3.625 29.9375 C4.23601563 30.64777344 4.84703125 31.35804688 5.4765625 32.08984375 C7 34 7 34 8 37 C9.3153341 37.70151152 10.65117592 38.36525925 12 39 C13.02175754 39.97775842 14.02537586 40.97525233 15 42 C14.44570313 42.66386719 13.89140625 43.32773437 13.3203125 44.01171875 C12.59585938 44.89472656 11.87140625 45.77773438 11.125 46.6875 C10.40570312 47.55761719 9.68640625 48.42773438 8.9453125 49.32421875 C7.11067624 51.8477646 6.00532771 54.06338486 5 57 C-5.23500594 52.21328619 -15.35163801 45.39587876 -19.44140625 34.359375 C-20.65119176 29.24951173 -21.44604182 23.77469278 -18.94140625 18.96875 C-17.625 17.3125 -17.625 17.3125 -15 15 C-14.34 15 -13.68 15 -13 15 C-12.34 13.68 -11.68 12.36 -11 11 C-10.34 11 -9.68 11 -9 11 C-8.34 9.68 -7.68 8.36 -7 7 C-6.34 7 -5.68 7 -5 7 C-4.731875 6.401875 -4.46375 5.80375 -4.1875 5.1875 C-3.01506533 3.02775192 -1.80630718 1.64209744 0 0 Z " fill="#548E83" transform="translate(679,330)"/>
<path d="M0 0 C2.03509225 0.95166184 3.83793541 1.82019957 5.609375 3.203125 C5.939375 4.193125 6.269375 5.183125 6.609375 6.203125 C5.171875 8.890625 5.171875 8.890625 3.609375 11.203125 C-2.265625 9.328125 -2.265625 9.328125 -3.390625 8.203125 C-6.390625 8.03645833 -6.390625 8.03645833 -9.390625 8.203125 C-10.68696121 9.26957615 -10.68696121 9.26957615 -10.453125 11.765625 C-10.4325 12.57 -10.411875 13.374375 -10.390625 14.203125 C-9.42640625 14.50605469 -8.4621875 14.80898438 -7.46875 15.12109375 C-6.19242251 15.54340799 -4.91639631 15.96663354 -3.640625 16.390625 C-2.38765625 16.79667969 -1.1346875 17.20273437 0.15625 17.62109375 C3.93462909 19.35213847 5.47780352 20.6697565 7.609375 24.203125 C8.66082131 28.44987567 8.55448457 32.511074 6.3984375 36.37109375 C3.74424773 39.63830705 1.85494758 41.53975428 -2.390625 42.203125 C-9.40159268 42.76922798 -15.0469676 42.31728409 -21.390625 39.203125 C-22.050625 38.213125 -22.710625 37.223125 -23.390625 36.203125 C-22.400625 34.553125 -21.410625 32.903125 -20.390625 31.203125 C-13.640625 32.078125 -13.640625 32.078125 -11.390625 33.203125 C-10.01719669 33.2720722 -8.64060398 33.28780208 -7.265625 33.265625 C-5.3475 33.2346875 -5.3475 33.2346875 -3.390625 33.203125 C-3.060625 31.553125 -2.730625 29.903125 -2.390625 28.203125 C-5.25028145 26.29668737 -7.0048051 25.6983965 -10.265625 24.890625 C-14.82424818 23.58625983 -17.38092983 21.9895157 -20.390625 18.203125 C-22.12306127 14.73825245 -21.86337474 10.99168885 -21.390625 7.203125 C-16.64129003 -0.88833457 -8.68895177 -2.89631726 0 0 Z " fill="#73B6AC" transform="translate(444.390625,464.796875)"/>
<path d="M0 0 C3.29840128 2.41346435 4.0854032 4.03621735 5.5625 7.875 C6.05451979 11.66250093 6.16383666 15.43419482 6.25 19.25 C6.30124023 20.78333984 6.30124023 20.78333984 6.35351562 22.34765625 C6.43558588 24.85666114 6.50486876 27.36533465 6.5625 29.875 C3.6875 30 3.6875 30 0.5625 29.875 C-0.0975 29.215 -0.7575 28.555 -1.4375 27.875 C-3.42241642 28.14176204 -3.42241642 28.14176204 -5.4375 28.875 C-9.16132683 30.11627561 -12.56925432 30.40180389 -16.4375 29.875 C-19.4375 28.3125 -19.4375 28.3125 -21.4375 25.875 C-22.11655229 21.725236 -21.91999922 19.67916536 -19.75 16.0625 C-15.21393165 11.77162454 -11.22397729 11.66780476 -5.23046875 11.8046875 C-4.63878906 11.82789063 -4.04710937 11.85109375 -3.4375 11.875 C-4.0975 10.555 -4.7575 9.235 -5.4375 7.875 C-7.3246875 7.8440625 -7.3246875 7.8440625 -9.25 7.8125 C-9.95769531 7.80089844 -10.66539062 7.78929687 -11.39453125 7.77734375 C-13.64055461 7.79236783 -13.64055461 7.79236783 -16.4375 8.875 C-17.7575 7.555 -19.0775 6.235 -20.4375 4.875 C-19.4375 1.875 -19.4375 1.875 -17 0.1875 C-11.17231663 -1.95954124 -5.8940049 -1.92894706 0 0 Z " fill="#78B7AC" transform="translate(477.4375,477.125)"/>
<path d="M0 0 C3.46789435 1.93556894 5.37962282 3.45831419 6.75 7.3125 C6.75 10.2825 6.75 13.2525 6.75 16.3125 C0.15 16.3125 -6.45 16.3125 -13.25 16.3125 C-12.26 17.9625 -11.27 19.6125 -10.25 21.3125 C-5.67149218 21.7555814 -1.72203541 21.43050885 2.75 20.3125 C3.74 21.6325 4.73 22.9525 5.75 24.3125 C1.70842117 28.48879812 -0.17242251 29.48728362 -6 29.625 C-11.27610213 29.56188873 -14.34044031 29.12432069 -18.25 25.3125 C-21.62084771 20.78846755 -22.98020748 17.25806465 -22.69921875 11.58984375 C-21.63244039 6.18174129 -18.84184311 2.41986912 -14.375 -0.6875 C-9.06294079 -2.38735895 -5.06221318 -2.28077737 0 0 Z " fill="#88BFB2" transform="translate(531.25,477.6875)"/>
<path d="M0 0 C2.97 0 5.94 0 9 0 C9.06058594 1.42054688 9.12117187 2.84109375 9.18359375 4.3046875 C9.26799291 6.16146909 9.35264123 8.01823936 9.4375 9.875 C9.47681641 10.81214844 9.51613281 11.74929688 9.55664062 12.71484375 C9.61948242 14.05869141 9.61948242 14.05869141 9.68359375 15.4296875 C9.72025146 16.25710449 9.75690918 17.08452148 9.79467773 17.93701172 C9.88238327 20.06179429 9.88238327 20.06179429 11 22 C12.99954746 22.04254356 15.00041636 22.04080783 17 22 C18.61780157 20.38219843 18.22272147 18.54364482 18.31640625 16.30859375 C18.35830078 15.36435547 18.40019531 14.42011719 18.44335938 13.44726562 C18.48267578 12.45404297 18.52199219 11.46082031 18.5625 10.4375 C18.60568359 9.44041016 18.64886719 8.44332031 18.69335938 7.41601562 C18.79980298 4.9441585 18.90181928 2.4721969 19 0 C21.97 0 24.94 0 28 0 C28.33 9.9 28.66 19.8 29 30 C23 30 23 30 21.125 28.5 C20.75375 28.005 20.3825 27.51 20 27 C19.44183594 27.4846875 18.88367188 27.969375 18.30859375 28.46875 C14.4470765 31.03002709 10.46870201 30.78816912 6 30 C2.65374976 27.47323961 1.32022153 25.96066458 0 22 C-0.08178114 20.29983156 -0.10749501 18.59663703 -0.09765625 16.89453125 C-0.09443359 15.91162109 -0.09121094 14.92871094 -0.08789062 13.91601562 C-0.07951172 12.89185547 -0.07113281 11.86769531 -0.0625 10.8125 C-0.05798828 9.77673828 -0.05347656 8.74097656 -0.04882812 7.67382812 C-0.0370401 5.11582734 -0.02058515 2.55794267 0 0 Z " fill="#D4D7D7" transform="translate(597,477)"/>
<path d="M0 0 C11.22 0 22.44 0 34 0 C34 2.64 34 5.28 34 8 C30.04 8 26.08 8 22 8 C22 19.22 22 30.44 22 42 C19.03 42 16.06 42 13 42 C13 30.78 13 19.56 13 8 C8.71 8 4.42 8 0 8 C0 5.36 0 2.72 0 0 Z " fill="#CFD2D2" transform="translate(539,465)"/>
<path d="M0 0 C0 0.66 0 1.32 0 2 C-1.32 2 -2.64 2 -4 2 C-3.67 2.66 -3.34 3.32 -3 4 C-2.53521596 11.32034859 -2.53521596 11.32034859 -4.19140625 13.7421875 C-6.6292718 15.43763611 -8.24831538 15.30201369 -11.1875 15.1875 C-12.53908203 15.14689453 -12.53908203 15.14689453 -13.91796875 15.10546875 C-14.60503906 15.07066406 -15.29210937 15.03585937 -16 15 C-16 16.65 -16 18.3 -16 20 C-14.64455078 19.94779297 -14.64455078 19.94779297 -13.26171875 19.89453125 C-12.08222656 19.86746094 -10.90273438 19.84039062 -9.6875 19.8125 C-8.51574219 19.77769531 -7.34398437 19.74289062 -6.13671875 19.70703125 C-3 20 -3 20 -1.1015625 21.32421875 C0.59936481 23.91179965 0.3140521 25.98509986 0 29 C-2.47937284 32.71905926 -3.71739996 32.96900369 -8 34 C-12.1204497 34.54025466 -15.23206054 34.39996847 -19 32.4375 C-21 30 -21 30 -21.4375 26.4375 C-21 23 -21 23 -19 20 C-18.17567358 16.48055874 -18.17567358 16.48055874 -18 13 C-18.66 12.34 -19.32 11.68 -20 11 C-20.66549077 6.59112363 -20.47535089 4.67108361 -17.875 1 C-12.8547312 -2.74083136 -5.78191876 -0.7999641 0 0 Z " fill="#D3D6D7" transform="translate(902,482)"/>
<path d="M0 0 C1.33332095 2.6666419 0.67102033 4.16680303 0 7 C-2.31 7.66 -4.62 8.32 -7 9 C-7.33 10.65 -7.66 12.3 -8 14 C-5.69 14 -3.38 14 -1 14 C-1 15.98 -1 17.96 -1 20 C-3.31 20 -5.62 20 -8 20 C-8 27.92 -8 35.84 -8 44 C-10.97 44 -13.94 44 -17 44 C-17 36.41 -17 28.82 -17 21 C-18.32 21 -19.64 21 -21 21 C-21 18.69 -21 16.38 -21 14 C-19.68 14 -18.36 14 -17 14 C-16.98582031 13.32453125 -16.97164063 12.6490625 -16.95703125 11.953125 C-16.57482037 4.80474852 -16.57482037 4.80474852 -14.125 1.375 C-9.46212638 -0.67666439 -5.01796455 -0.31636904 0 0 Z " fill="#83BCB1" transform="translate(508,463)"/>
<path d="M0 0 C2.64 0 5.28 0 8 0 C8 3.3 8 6.6 8 10 C10.64 10 13.28 10 16 10 C16 12.31 16 14.62 16 17 C13.69 17 11.38 17 9 17 C9 22.28 9 27.56 9 33 C11.97 32.505 11.97 32.505 15 32 C15.66 34.31 16.32 36.62 17 39 C14.1520177 39.94932743 12.03792604 40.25866755 9.0625 40.375 C8.20785156 40.42398438 7.35320313 40.47296875 6.47265625 40.5234375 C4 40 4 40 1.69921875 38.05859375 C-0.64404122 33.8407258 -0.44427578 30.42110414 -0.25 25.6875 C-0.23195313 24.85154297 -0.21390625 24.01558594 -0.1953125 23.15429688 C-0.14841126 21.10236772 -0.07667411 19.05103244 0 17 C-1.65 17 -3.3 17 -5 17 C-5 14.69 -5 12.38 -5 10 C-3.35 10 -1.7 10 0 10 C0 6.7 0 3.4 0 0 Z " fill="#D6D8D8" transform="translate(662,467)"/>
<path d="M0 0 C4.14798495 1.79117532 6.2414131 3.83492576 8 8 C8.53647806 13.63301965 8.16601282 17.13790888 5 22 C3.09872022 24.19378437 1.7676888 24.8703715 -1.08203125 25.3515625 C-5.53836052 25.63239254 -7.39996634 25.47502664 -11 22.625 C-14.75825234 17.69229381 -14.78724297 13.07546206 -14 7 C-10.76671785 0.75059645 -6.71854801 -0.45549478 0 0 Z " fill="#606768" transform="translate(869,481)"/>
<path d="M0 0 C2.875 1.53125 2.875 1.53125 5 3 C4.1875 4.9375 4.1875 4.9375 3 7 C0.00468461 7.99843846 -1.17255732 8.00732761 -4.1875 7.5625 C-5.445625 7.376875 -6.70375 7.19125 -8 7 C-8.33 8.32 -8.66 9.64 -9 11 C-8.32453125 11.09796875 -7.6490625 11.1959375 -6.953125 11.296875 C0.22154648 12.4995656 0.22154648 12.4995656 3.625 14.6875 C5.60680858 18.0205417 5.53496043 20.18840695 5 24 C2.86320715 27.38939556 1.8225233 28.72582557 -2 30 C-8.07583783 30.54379271 -12.70377384 30.34498494 -18 27 C-18 24 -18 24 -16.5 22.3125 C-16.005 21.879375 -15.51 21.44625 -15 21 C-14.29875 21.33 -13.5975 21.66 -12.875 22 C-9.73996884 23.09044562 -7.29436818 23.15322643 -4 23 C-4.16016792 21.02723636 -4.16016792 21.02723636 -5 19 C-6.98436045 17.9691244 -6.98436045 17.9691244 -9.375 17.4375 C-12.74916303 16.5527439 -14.86296388 15.84266125 -17 13 C-17.61107924 8.26413589 -17.65852455 6.12889922 -15.25 2 C-10.39730171 -0.98627587 -5.5620119 -0.88755509 0 0 Z " fill="#DFE0E1" transform="translate(649,477)"/>
<path d="M0 0 C-0.33 2.97 -0.66 5.94 -1 9 C-2.11375 9.12375 -3.2275 9.2475 -4.375 9.375 C-8.03103677 9.6465813 -8.03103677 9.6465813 -10 12 C-10.36894582 14.03060659 -10.36894582 14.03060659 -10.4140625 16.3515625 C-10.47207031 17.62773437 -10.47207031 17.62773437 -10.53125 18.9296875 C-10.57765625 20.26386719 -10.57765625 20.26386719 -10.625 21.625 C-10.68300781 22.97078125 -10.68300781 22.97078125 -10.7421875 24.34375 C-10.83658776 26.56215605 -10.91938805 28.78105013 -11 31 C-13.97 31 -16.94 31 -20 31 C-20 21.1 -20 11.2 -20 1 C-17.36 1 -14.72 1 -12 1 C-12 2.32 -12 3.64 -12 5 C-11.34 5 -10.68 5 -10 5 C-9.71125 4.360625 -9.4225 3.72125 -9.125 3.0625 C-6.99029742 -0.85112139 -4.08058807 -0.08870844 0 0 Z " fill="#D5D7D7" transform="translate(594,476)"/>
<path d="M0 0 C11.25526848 3.20368335 20.47308378 11.13157538 26.8125 20.75 C28.51789163 25.41738761 28.74527697 30.0636434 29 35 C28.34 35 27.68 35 27 35 C26.71125 35.639375 26.4225 36.27875 26.125 36.9375 C25 39 25 39 23 40 C23.350625 39.175 23.70125 38.35 24.0625 37.5 C25.44874767 32.32467535 24.7007979 28.10239371 23 23 C22.34 23 21.68 23 21 23 C19.84828738 21.81441348 18.69736217 20.6280501 17.55078125 19.4375 C12.08377796 14.3698496 5.49883943 11 -2 11 C-4.0059556 12.73908955 -4.0059556 12.73908955 -5.75 15 C-6.67039062 16.11375 -6.67039062 16.11375 -7.609375 17.25 C-8.06828125 17.8275 -8.5271875 18.405 -9 19 C-9.33 18.34 -9.66 17.68 -10 17 C-8.88321917 15.3278148 -7.75633648 13.66237197 -6.625 12 C-5.99851562 11.071875 -5.37203125 10.14375 -4.7265625 9.1875 C-4.15679688 8.465625 -3.58703125 7.74375 -3 7 C-2.34 7 -1.68 7 -1 7 C-0.67 4.69 -0.34 2.38 0 0 Z " fill="#26679F" transform="translate(657,276)"/>
<path d="M0 0 C2.83993156 1.60567559 5.192685 3.26763916 7 6 C7 8.31 7 10.62 7 13 C1.06 13 -4.88 13 -11 13 C-8.71183213 19.53576165 -8.71183213 19.53576165 -6 22 C-1.54736965 22.40478458 1.84782943 21.58177926 6 20 C4.25 23.875 4.25 23.875 2 25 C-2.539219 25.54399285 -5.9544269 25.62289461 -9.9375 23.25 C-13.72734826 19.11562008 -14.44700156 15.74678207 -14.3203125 10.25390625 C-13.81993238 6.73293884 -12.31320111 4.63447905 -10 2 C-6.78667754 -0.35643647 -3.90425036 -0.61243143 0 0 Z " fill="#CBCDCC" transform="translate(730,481)"/>
<path d="M0 0 C0.99 0 1.98 0 3 0 C3.33 3.96 3.66 7.92 4 12 C4.99 11.34 5.98 10.68 7 10 C11.16879916 9.45960011 13.21713947 9.4554996 16.70703125 11.8828125 C19.98212472 16.33515421 19.55922242 19.94154272 19.3125 25.3125 C19.28994141 26.24384766 19.26738281 27.17519531 19.24414062 28.13476562 C19.18542078 30.4248396 19.10336858 32.71157875 19 35 C18.01 35 17.02 35 16 35 C15.97494385 34.39937744 15.9498877 33.79875488 15.92407227 33.17993164 C15.8084472 30.47388563 15.68557064 27.76821717 15.5625 25.0625 C15.52318359 24.11697266 15.48386719 23.17144531 15.44335938 22.19726562 C15.40146484 21.29814453 15.35957031 20.39902344 15.31640625 19.47265625 C15.27974854 18.64000244 15.24309082 17.80734863 15.20532227 16.94946289 C15.20632897 14.99661142 15.20632897 14.99661142 14 14 C9.98342857 13.77081758 9.98342857 13.77081758 6 14 C3.6031335 16.3968665 3.71718867 17.07028314 3.5859375 20.3515625 C3.54726563 21.20234375 3.50859375 22.053125 3.46875 22.9296875 C3.4378125 23.81914062 3.406875 24.70859375 3.375 25.625 C3.33632813 26.5221875 3.29765625 27.419375 3.2578125 28.34375 C3.16340643 30.5622927 3.07783252 32.78082403 3 35 C2.01 35 1.02 35 0 35 C0 23.45 0 11.9 0 0 Z " fill="#C7CBCA" transform="translate(766,471)"/>
<path d="M0 0 C4.14798495 1.79117532 6.2414131 3.83492576 8 8 C8.53647806 13.63301965 8.16601282 17.13790888 5 22 C3.09872022 24.19378437 1.7676888 24.8703715 -1.08203125 25.3515625 C-5.53836052 25.63239254 -7.39996634 25.47502664 -11 22.625 C-14.75825234 17.69229381 -14.78724297 13.07546206 -14 7 C-10.76671785 0.75059645 -6.71854801 -0.45549478 0 0 Z M-9.5 4.3125 C-11.95412984 8.70948264 -11.83363977 13.09964795 -11 18 C-9.1009044 21.31830353 -9.1009044 21.31830353 -6 23 C-2.95691709 23.75015195 -2.95691709 23.75015195 0 23 C2.84470117 20.69348553 4.79259118 18.7306736 5.23828125 15.01171875 C5.3642309 11.06750591 5.26184732 8.53460495 3.5 4.9375 C0.46001114 2.58150863 -1.32264188 2.30606522 -5.09375 2.6015625 C-7.17326624 2.94540898 -7.17326624 2.94540898 -9.5 4.3125 Z " fill="#D2D6D6" transform="translate(869,481)"/>
<path d="M0 0 C2.875 1.53125 2.875 1.53125 5 3 C4.1875 4.9375 4.1875 4.9375 3 7 C0.00468461 7.99843846 -1.17255732 8.00732761 -4.1875 7.5625 C-5.445625 7.376875 -6.70375 7.19125 -8 7 C-8.20625 7.763125 -8.4125 8.52625 -8.625 9.3125 C-10.42070704 12.82229103 -12.43136312 13.52599781 -16 15 C-17.62068951 11.75862098 -17.54928387 8.50335931 -17 5 C-13.2296114 -1.46352331 -6.74446558 -1.07624451 0 0 Z " fill="#D4D5D5" transform="translate(649,477)"/>
<path d="M0 0 C0.33 0 0.66 0 1 0 C1.33 6.27 1.66 12.54 2 19 C3.65 17.35 5.3 15.7 7 14 C8.03125 14.45375 9.0625 14.9075 10.125 15.375 C12.56139942 16.43968674 14.79130211 17.21980614 17.375 17.9375 C20 19 20 19 20.9375 21.0625 C20.958125 21.701875 20.97875 22.34125 21 23 C20 24 20 24 17.25 24.1875 C14.03256076 24.00187851 11.89243317 23.36114502 9 22 C7.02 23.65 5.04 25.3 3 27 C3.33 27.99 3.66 28.98 4 30 C3.34 30 2.68 30 2 30 C2 30.66 2 31.32 2 32 C0.35 31.67 -1.3 31.34 -3 31 C-1.68 30.67 -0.36 30.34 1 30 C0.83628906 29.09121094 0.67257812 28.18242187 0.50390625 27.24609375 C-0.26393579 21.87119944 -0.1062149 16.47978455 -0.0625 11.0625 C-0.05798828 9.99708984 -0.05347656 8.93167969 -0.04882812 7.83398438 C-0.03711787 5.22259709 -0.02071724 2.61132876 0 0 Z " fill="#5B6264" transform="translate(625,477)"/>
<path d="M0 0 C0.66 0 1.32 0 2 0 C-0.05182486 7.37889158 -2.63986611 14.42465139 -5.5625 21.5 C-5.96146484 22.48742187 -6.36042969 23.47484375 -6.77148438 24.4921875 C-7.15755859 25.43320312 -7.54363281 26.37421875 -7.94140625 27.34375 C-8.28888916 28.19130859 -8.63637207 29.03886719 -8.99438477 29.91210938 C-10 32 -10 32 -12 34 C-15.625 34.125 -15.625 34.125 -19 34 C-19 33.34 -19 32.68 -19 32 C-18.21625 31.9175 -17.4325 31.835 -16.625 31.75 C-13.93675158 31.26127622 -13.93675158 31.26127622 -12.6875 29.3125 C-10.62889419 22.38809864 -13.32750214 16.954125 -16 10.625 C-16.3815625 9.69816406 -16.763125 8.77132813 -17.15625 7.81640625 C-18.0948815 5.54022486 -19.0429698 3.26849246 -20 1 C-18.12011719 1.26147461 -18.12011719 1.26147461 -16 2 C-14.90332031 3.67407227 -14.90332031 3.67407227 -14.078125 5.81640625 C-13.62373047 6.96206055 -13.62373047 6.96206055 -13.16015625 8.13085938 C-12.85980469 8.93330078 -12.55945313 9.73574219 -12.25 10.5625 C-11.77626953 11.77196289 -11.77626953 11.77196289 -11.29296875 13.00585938 C-10.51476218 14.99853983 -9.75555734 16.99862199 -9 19 C-8.68546875 18.29875 -8.3709375 17.5975 -8.046875 16.875 C-5.48022823 11.18508426 -2.83340858 5.5618761 0 0 Z " fill="#D5D7D7" transform="translate(924,481)"/>
<path d="M0 0 C2.97672584 1.77280561 5.42804007 3.85608015 7 7 C7.41251687 11.92640344 7.6526414 16.47717008 5.6875 21.0625 C3.68156136 23.36561474 1.97439105 24.82665328 -1.0859375 25.37109375 C-5.54279615 25.50038828 -7.3794666 25.49125561 -11 22.625 C-14.75825234 17.69229381 -14.78724297 13.07546206 -14 7 C-10.81537108 0.84463514 -6.67799679 -0.66779968 0 0 Z M-9.375 4.4375 C-11.72570359 8.14437874 -12.21805777 11.63884466 -12 16 C-10.64913319 19.02336858 -9.32414606 20.67585394 -7 23 C-3.01855844 23.4423824 -0.86883322 23.66305693 2.375 21.1875 C5.30320614 17.24568404 5.33021968 13.78818534 5 9 C3.25271222 5.27196535 3.25271222 5.27196535 0 3 C-3.73671591 2.65400779 -6.11909553 2.46682098 -9.375 4.4375 Z " fill="#D9DCDC" transform="translate(832,481)"/>
<path d="M0 0 C8.58 0 17.16 0 26 0 C26 0.66 26 1.32 26 2 C22.37 2 18.74 2 15 2 C15 12.56 15 23.12 15 34 C14.01 34 13.02 34 12 34 C12 23.77 12 13.54 12 3 C8.04 3 4.08 3 0 3 C0 2.01 0 1.02 0 0 Z " fill="#C9CBCB" transform="translate(692,472)"/>
<path d="M0 0 C2.703125 1.88671875 2.703125 1.88671875 5 5 C5.60359026 8.460387 5.47323204 11.81348714 5.3125 15.3125 C5.28994141 16.24384766 5.26738281 17.17519531 5.24414062 18.13476562 C5.18542078 20.4248396 5.10336858 22.71157875 5 25 C4.01 25 3.02 25 2 25 C1.97494385 24.39937744 1.9498877 23.79875488 1.92407227 23.17993164 C1.8084472 20.47388563 1.68557064 17.76821717 1.5625 15.0625 C1.52318359 14.11697266 1.48386719 13.17144531 1.44335938 12.19726562 C1.40146484 11.29814453 1.35957031 10.39902344 1.31640625 9.47265625 C1.27974854 8.64000244 1.24309082 7.80734863 1.20532227 6.94946289 C1.20632897 4.99661142 1.20632897 4.99661142 0 4 C-5.12941334 3.3570952 -5.12941334 3.3570952 -9.59350586 5.25610352 C-11.31178551 7.3865794 -11.41563004 8.52076702 -11.51171875 11.23046875 C-11.56489258 12.43413086 -11.56489258 12.43413086 -11.61914062 13.66210938 C-11.64169922 14.49548828 -11.66425781 15.32886719 -11.6875 16.1875 C-11.72166016 17.03248047 -11.75582031 17.87746094 -11.79101562 18.74804688 C-11.87341471 20.83156649 -11.93838645 22.91576216 -12 25 C-12.66 25 -13.32 25 -14 25 C-14 17.08 -14 9.16 -14 1 C-13.34 1 -12.68 1 -12 1 C-11.67 1.66 -11.34 2.32 -11 3 C-10.484375 2.505 -9.96875 2.01 -9.4375 1.5 C-6.03618625 -0.59311615 -3.92927257 -0.55147685 0 0 Z " fill="#D1D5D4" transform="translate(807,481)"/>
<path d="M0 0 C2.5 1.3125 2.5 1.3125 4 3 C4 3.99 4 4.98 4 6 C3.46375 5.690625 2.9275 5.38125 2.375 5.0625 C-0.54568567 3.75587747 -2.789252 3.13105094 -6 3 C-9.08671169 4.06750847 -9.08671169 4.06750847 -11 7 C-11.85852021 11.92715947 -12.00044664 16.34541518 -9.375 20.6875 C-6.27571098 22.40026498 -4.49981139 22.49997306 -1 22 C1.81780534 20.61114752 1.81780534 20.61114752 4 19 C4 20.32 4 21.64 4 23 C0.30858974 25.46094018 -3.71640046 25.83040989 -8 25 C-11.02089981 23.2524257 -13.41608883 21.16782234 -15 18 C-15.55601425 12.93206684 -15.55831633 9.07812809 -13.1875 4.5 C-9.23546764 -0.01660841 -5.8038036 -0.77072643 0 0 Z " fill="#CACCCC" transform="translate(756,481)"/>
<path d="M0 0 C3.0390625 0.0234375 3.0390625 0.0234375 6.625 0.375 C7.81351563 0.48585938 9.00203125 0.59671875 10.2265625 0.7109375 C11.14179687 0.80632812 12.05703125 0.90171875 13 1 C13.33 2.65 13.66 4.3 14 6 C10.93756084 8.68585151 9.00164341 9.41177958 4.9375 9.375 C4.08027344 9.38273438 3.22304688 9.39046875 2.33984375 9.3984375 C-0.42665407 8.92734772 -1.35359521 8.24063699 -3 6 C-2.72963853 3.02602384 -2.14553974 2.14553974 0 0 Z " fill="#686B6B" transform="translate(886,504)"/>
<path d="M0 0 C1.051875 0.4640625 1.051875 0.4640625 2.125 0.9375 C5.08936657 2.03302678 7.87698108 2.56422992 11 3 C11 3.66 11 4.32 11 5 C11.45375 4.505 11.9075 4.01 12.375 3.5 C14 2 14 2 16 2 C16.33 3.65 16.66 5.3 17 7 C12.43794641 9.6384227 8.15064928 9.55879686 3 9 C-0.625 7.5 -0.625 7.5 -3 6 C-3 3 -3 3 -1.5 1.3125 C-0.7575 0.6628125 -0.7575 0.6628125 0 0 Z " fill="#D7DADA" transform="translate(634,498)"/>
<path d="M0 0 C0.70125 -0.01675781 1.4025 -0.03351563 2.125 -0.05078125 C2.74375 0.06910156 3.3625 0.18898438 4 0.3125 C6.15502531 3.54503796 6.46856135 4.56400923 6 8.3125 C4.875 10.125 4.875 10.125 3 11.3125 C-1.07794425 11.73728586 -2.53076119 11.62532587 -6 9.3125 C-6.3125 5.8125 -6.3125 5.8125 -6 2.3125 C-3.67471713 -0.01278287 -3.15334102 0.01738975 0 0 Z " fill="#5B6263" transform="translate(891,483.6875)"/>
<path d="M0 0 C0.66 0 1.32 0 2 0 C2.99140649 11.68443367 3.10709533 23.27901152 3 35 C2.01 35 1.02 35 0 35 C0 23.45 0 11.9 0 0 Z " fill="#CDD0CF" transform="translate(766,471)"/>
<path d="M0 0 C2 1.25 2 1.25 3 3 C3 4.32 3 5.64 3 7 C-1.95 7 -6.9 7 -12 7 C-10.22015188 -0.11939248 -6.93764201 -1.06955314 0 0 Z " fill="#616769" transform="translate(731,484)"/>
<path d="M0 0 C0.66 0 1.32 0 2 0 C2.33 10.56 2.66 21.12 3 32 C3.99 32.33 4.98 32.66 6 33 C6 33.66 6 34.32 6 35 C4.33388095 35.042721 2.66617115 35.04063832 1 35 C0 34 0 34 -0.11352539 30.76538086 C-0.11336631 29.33185874 -0.10767407 27.89833088 -0.09765625 26.46484375 C-0.0962413 25.71159317 -0.09482635 24.95834259 -0.09336853 24.18226624 C-0.08775376 21.7673044 -0.07519883 19.35243399 -0.0625 16.9375 C-0.0574869 15.30403779 -0.05292366 13.67057414 -0.04882812 12.03710938 C-0.03777954 8.02470415 -0.02050506 4.01236759 0 0 Z " fill="#DEDFDF" transform="translate(846,471)"/>
<path d="M0 0 C0.79148437 -0.01417969 1.58296875 -0.02835937 2.3984375 -0.04296875 C4.625 0.1875 4.625 0.1875 7.625 2.1875 C8.3125 4.3125 8.3125 4.3125 8.625 6.1875 C7.305 5.8575 5.985 5.5275 4.625 5.1875 C4.625 5.8475 4.625 6.5075 4.625 7.1875 C0.17 6.1975 0.17 6.1975 -4.375 5.1875 C-4.705 3.8675 -5.035 2.5475 -5.375 1.1875 C-3.79539731 -0.39210269 -2.17963184 0.01763456 0 0 Z " fill="#8DC6B8" transform="translate(525.375,476.8125)"/>
<path d="M0 0 C0.99 0.33 1.98 0.66 3 1 C0.40270859 4.30564361 -2.12442563 7.20409917 -5.375 9.875 C-8.65239519 12.5943904 -11.33804698 15.59130476 -14.08984375 18.83203125 C-17.53385636 22.74087992 -21.27999851 26.35591691 -25 30 C-25.66 29.67 -26.32 29.34 -27 29 C-25.82244141 27.83984375 -25.82244141 27.83984375 -24.62109375 26.65625 C-18.85052024 20.94544183 -13.26865762 15.18172709 -8 9 C-6.52426389 7.33029502 -5.04504677 5.66366069 -3.5625 4 C-2.88316406 3.236875 -2.20382812 2.47375 -1.50390625 1.6875 C-1.00761719 1.130625 -0.51132812 0.57375 0 0 Z " fill="#5AA2C7" transform="translate(642,299)"/>
<path d="M0 0 C0.33 0 0.66 0 1 0 C1 6.93 1 13.86 1 21 C2.98 21 4.96 21 7 21 C7 24 7 24 5 26.1875 C4.01 27.0846875 4.01 27.0846875 3 28 C3.33 28.66 3.66 29.32 4 30 C3.34 30 2.68 30 2 30 C2 30.66 2 31.32 2 32 C0.35 31.67 -1.3 31.34 -3 31 C-1.68 30.67 -0.36 30.34 1 30 C0.83628906 29.09121094 0.67257812 28.18242187 0.50390625 27.24609375 C-0.26393579 21.87119944 -0.1062149 16.47978455 -0.0625 11.0625 C-0.05798828 9.99708984 -0.05347656 8.93167969 -0.04882812 7.83398438 C-0.03711787 5.22259709 -0.02071724 2.61132876 0 0 Z " fill="#676D6E" transform="translate(625,477)"/>
<path d="M0 0 C0.33 0 0.66 0 1 0 C1.02578125 0.60328125 1.0515625 1.2065625 1.078125 1.828125 C1.34993761 5.65821171 1.54571334 8.31015729 3.6875 11.5625 C6.74348413 13.46216581 8.45292316 13.50672526 12 13 C14.81780534 11.61114752 14.81780534 11.61114752 17 10 C17 11.32 17 12.64 17 14 C13.30212684 16.46524877 9.2904661 16.81527091 5 16 C1.77269829 14.25795112 -0.54924746 12.19127457 -1.875 8.6875 C-1.91625 8.130625 -1.9575 7.57375 -2 7 C-1.34 7 -0.68 7 0 7 C0 4.69 0 2.38 0 0 Z " fill="#CFD2D1" transform="translate(743,490)"/>
<path d="M0 0 C0.4125 0.556875 0.825 1.11375 1.25 1.6875 C1.8275 2.450625 2.405 3.21375 3 4 C3.598125 4.9075 4.19625 5.815 4.8125 6.75 C6.82079827 9.26883158 6.82079827 9.26883158 9.875 9.4375 C13.11684022 8.98364237 15.9450972 8.1637725 19 7 C17.25 10.875 17.25 10.875 15 12 C10.36786507 12.55512815 7.01827873 12.6364242 3 10.125 C-0.22206562 6.70155528 -0.10020553 4.6094546 0 0 Z " fill="#DADCDB" transform="translate(717,494)"/>
<path d="M0 0 C-0.3125 2.375 -0.3125 2.375 -1 5 C-4 7 -4 7 -6.6875 6.625 C-7.450625 6.41875 -8.21375 6.2125 -9 6 C-9 4.35 -9 2.7 -9 1 C-5.57367167 -0.61798838 -3.61944899 -1.34053666 0 0 Z " fill="#526465" transform="translate(474,494)"/>
<path d="M0 0 C-0.33 0.99 -0.66 1.98 -1 3 C-2.8125 3.66015625 -2.8125 3.66015625 -5 4.0625 C-7.14055297 4.42700873 -7.14055297 4.42700873 -9 5 C-10.14814997 7.29629994 -10.30769809 9.07698086 -10.5625 11.625 C-10.64628906 12.44226563 -10.73007812 13.25953125 -10.81640625 14.1015625 C-10.87699219 14.72804688 -10.93757812 15.35453125 -11 16 C-13.5640909 13.4359091 -13.9953843 12.25386372 -14.0625 8.5625 C-11.89019806 1.27889937 -7.24699959 -0.72469996 0 0 Z " fill="#C4C7C8" transform="translate(869,481)"/>
<path d="M0 0 C6.15234375 0.5859375 6.15234375 0.5859375 8 1 C8.33 1.66 8.66 2.32 9 3 C8.67 3.66 8.34 4.32 8 5 C8.66 5 9.32 5 10 5 C9.67 5.99 9.34 6.98 9 8 C5.7 7.01 2.4 6.02 -1 5 C-0.67 3.35 -0.34 1.7 0 0 Z " fill="#626A6B" transform="translate(641,483)"/>
<path d="M0 0 C3 1 3 1 3.9375 2.75 C4 5 4 5 2.5 7.375 C0.02258131 9.97628962 -2.54752623 12.28860736 -5.31640625 14.5703125 C-6.96767574 15.97255063 -8.48963519 17.44831822 -10 19 C-8.50328459 14.50985376 -6.16631659 10.52151236 -3 7 C-2.34 7 -1.68 7 -1 7 C-0.67 4.69 -0.34 2.38 0 0 Z " fill="#39678C" transform="translate(657,276)"/>
<path d="M0 0 C0.99 0.66 1.98 1.32 3 2 C3.4409511 4.86618213 3.41501866 6.36655047 1.8125 8.8125 C-0.55982525 10.36678206 -2.22041345 10.22537188 -5 10 C-4.64766839 4.5388601 -4.64766839 4.5388601 -4 2 C-1.9375 0.5 -1.9375 0.5 0 0 Z " fill="#565D5E" transform="translate(894,485)"/>
<path d="M0 0 C1.9375 1.5 1.9375 1.5 3 3 C0 4 0 4 -3.5 3.875 C-6.89996394 3.67096299 -6.89996394 3.67096299 -8.8125 5.3125 C-9.89991036 6.85776736 -10.95187897 8.42781846 -12 10 C-12.66 9.67 -13.32 9.34 -14 9 C-11.77896313 1.73115207 -7.54389246 -0.97791199 0 0 Z " fill="#C8CCCD" transform="translate(832,481)"/>
<path d="M0 0 C1.134375 0.020625 2.26875 0.04125 3.4375 0.0625 C4.0975 1.7125 4.7575 3.3625 5.4375 5.0625 C1.4775 5.0625 -2.4825 5.0625 -6.5625 5.0625 C-4.06692478 0.07134956 -4.06692478 0.07134956 0 0 Z " fill="#636F71" transform="translate(524.5625,482.9375)"/>
<path d="M0 0 C1.32 0.33 2.64 0.66 4 1 C5.28501632 3.71444961 6.30329 6.23444538 7.25 9.0625 C7.518125 9.82111328 7.78625 10.57972656 8.0625 11.36132812 C8.72271967 13.23588042 9.36325109 15.11734572 10 17 C9.01 17.33 8.02 17.66 7 18 C4.69 12.06 2.38 6.12 0 0 Z " fill="#D2D5D6" transform="translate(904,482)"/>
<path d="M0 0 C0.99 0.33 1.98 0.66 3 1 C5.56634861 1.22718496 8.11678107 1.41608184 10.6875 1.5625 C11.7403418 1.62727539 11.7403418 1.62727539 12.81445312 1.69335938 C14.54275206 1.7991736 16.2713511 1.90006581 18 2 C18 2.33 18 2.66 18 3 C16.35 3.33 14.7 3.66 13 4 C13 4.33 13 4.66 13 5 C9.7 5 6.4 5 3 5 C2.34 6.32 1.68 7.64 1 9 C0.67 9 0.34 9 0 9 C0 6.03 0 3.06 0 0 Z " fill="#B6BABA" transform="translate(716,489)"/>
<path d="M0 0 C0 0.66 0 1.32 0 2 C1.65 2 3.3 2 5 2 C5 2.33 5 2.66 5 3 C4.38511719 3.04898438 3.77023437 3.09796875 3.13671875 3.1484375 C2.32847656 3.22320313 1.52023437 3.29796875 0.6875 3.375 C-0.51326172 3.47941406 -0.51326172 3.47941406 -1.73828125 3.5859375 C-4.27224441 3.89564426 -4.27224441 3.89564426 -7 6 C-9.1875 5.625 -9.1875 5.625 -11 5 C-11 4.01 -11 3.02 -11 2 C-7.17679443 0.57741188 -4.08718695 -0.24042276 0 0 Z " fill="#6F7477" transform="translate(905,513)"/>
<path d="M0 0 C0.33 0 0.66 0 1 0 C1.33 3.96 1.66 7.92 2 12 C2.99 11.34 3.98 10.68 5 10 C7.33199388 9.92094936 9.66832622 9.91201231 12 10 C11.67 10.99 11.34 11.98 11 13 C9.3603125 13.185625 9.3603125 13.185625 7.6875 13.375 C3.92618198 13.75464801 3.92618198 13.75464801 1 16 C0 15 0 15 -0.09765625 11.62109375 C-0.09098369 10.22652923 -0.07902532 8.83198257 -0.0625 7.4375 C-0.05798828 6.72658203 -0.05347656 6.01566406 -0.04882812 5.28320312 C-0.03700864 3.52209987 -0.01907263 1.76103964 0 0 Z " fill="#B6BABB" transform="translate(768,471)"/>
<path d="M0 0 C0.76570312 0.24556641 0.76570312 0.24556641 1.546875 0.49609375 C4.81291828 1.16698481 7.9186747 1.0933456 11.25 1.0625 C12.51328125 1.05347656 13.7765625 1.04445313 15.078125 1.03515625 C16.52445313 1.01775391 16.52445313 1.01775391 18 1 C17.01 2.485 17.01 2.485 16 4 C13.2114711 4.22107787 10.65346819 4.28107535 7.875 4.1875 C7.12089844 4.17396484 6.36679687 4.16042969 5.58984375 4.14648438 C3.72625873 4.11109985 1.86304022 4.05729167 0 4 C0 2.68 0 1.36 0 0 Z " fill="#545D60" transform="translate(515,505)"/>
<path d="M0 0 C0.66 0 1.32 0 2 0 C1.75 3.375 1.75 3.375 1 7 C-1.89548826 9.01650075 -4.28245797 9.22698653 -7.75 9.125 C-8.54921875 9.10695313 -9.3484375 9.08890625 -10.171875 9.0703125 C-10.77515625 9.04710937 -11.3784375 9.02390625 -12 9 C-9.45277237 7.68421354 -7.0159169 6.63305376 -4.3125 5.625 C-0.88612277 4.39051897 -0.88612277 4.39051897 -0.0625 1.8125 C-0.041875 1.214375 -0.02125 0.61625 0 0 Z " fill="#E7E9EA" transform="translate(900,506)"/>
<path d="M0 0 C0.33 0 0.66 0 1 0 C1.16435547 0.90492188 1.16435547 0.90492188 1.33203125 1.828125 C2.21668391 6.28734977 2.927629 9.50866931 6 13 C6 13.66 6 14.32 6 15 C1.35555556 13.53333333 1.35555556 13.53333333 -0.1875 11.21875 C-1.14463696 8.60502983 -1.02759881 6.98767192 -0.625 4.25 C-0.51414062 3.45078125 -0.40328125 2.6515625 -0.2890625 1.828125 C-0.19367187 1.22484375 -0.09828125 0.6215625 0 0 Z " fill="#E0E3E2" transform="translate(856,490)"/>
<path d="M0 0 C0.33 0 0.66 0 1 0 C1.33 3.63 1.66 7.26 2 11 C1.34 11 0.68 11 0 11 C-0.28875 11.639375 -0.5775 12.27875 -0.875 12.9375 C-2 15 -2 15 -4 16 C-3.67 15.175 -3.34 14.35 -3 13.5 C-1.83217191 9.4126017 -1.8541115 6.23076656 -2 2 C-1.34 2 -0.68 2 0 2 C0 1.34 0 0.68 0 0 Z " fill="#336A9D" transform="translate(684,300)"/>
<path d="M0 0 C1.32 0.33 2.64 0.66 4 1 C4.5625 2.9375 4.5625 2.9375 5 5 C4 6 4 6 0.9375 6.0625 C-0.031875 6.041875 -1.00125 6.02125 -2 6 C-2 3 -2 3 0 0 Z " fill="#696F6F" transform="translate(641,495)"/>
<path d="M0 0 C0.99 0.33 1.98 0.66 3 1 C-0.86757281 5.95532767 -5.18876004 9.96476648 -10 14 C-10.66 13.67 -11.32 13.34 -12 13 C-11.30132813 12.31292969 -10.60265625 11.62585938 -9.8828125 10.91796875 C-8.97273437 10.01691406 -8.06265625 9.11585938 -7.125 8.1875 C-6.22007812 7.29417969 -5.31515625 6.40085937 -4.3828125 5.48046875 C-1.90168486 3.04361667 -1.90168486 3.04361667 0 0 Z " fill="#4C90B8" transform="translate(642,299)"/>
<path d="M0 0 C0.66 0 1.32 0 2 0 C2 1.65 2 3.3 2 5 C-3.94 4.67 -9.88 4.34 -16 4 C-16 3.67 -16 3.34 -16 3 C-10.72 3 -5.44 3 0 3 C0 2.01 0 1.02 0 0 Z " fill="#DCDDDD" transform="translate(735,489)"/>
<path d="M0 0 C-0.8353125 0.37125 -0.8353125 0.37125 -1.6875 0.75 C-5.63317701 2.88279838 -8.92013493 5.75803677 -12 9 C-11.52 3.6 -11.52 3.6 -9.375 1.125 C-6.16894306 -0.39365855 -3.49954689 -0.20189694 0 0 Z " fill="#D8DAD9" transform="translate(729,482)"/>
<path d="M0 0 C0.99 0 1.98 0 3 0 C3.66 2.31 4.32 4.62 5 7 C3.68 7 2.36 7 1 7 C1 6.34 1 5.68 1 5 C0.34 5 -0.32 5 -1 5 C-0.67 3.35 -0.34 1.7 0 0 Z " fill="#D0D2D1" transform="translate(674,499)"/>
<path d="M0 0 C0.99 0.66 1.98 1.32 3 2 C2.67 4.97 2.34 7.94 2 11 C1.34 10.01 0.68 9.02 0 8 C-0.66 8 -1.32 8 -2 8 C-1.125 1.125 -1.125 1.125 0 0 Z " fill="#6A7274" transform="translate(739,485)"/>
<path d="M0 0 C0.66 0.66 1.32 1.32 2 2 C1.38125 2.433125 0.7625 2.86625 0.125 3.3125 C-2.2197245 4.99740483 -2.2197245 4.99740483 -4 8 C-4 4 -4 4 -2 1.75 C-1.01 0.88375 -1.01 0.88375 0 0 Z M-7 7 C-6.34 7.33 -5.68 7.66 -5 8 C-6.32 8.99 -7.64 9.98 -9 11 C-8.34 9.68 -7.68 8.36 -7 7 Z M-11 11 C-10.34 11.33 -9.68 11.66 -9 12 C-10.32 12.99 -11.64 13.98 -13 15 C-12.34 13.68 -11.68 12.36 -11 11 Z " fill="#629A8D" transform="translate(679,330)"/>
<path d="M0 0 C3.96 0 7.92 0 12 0 C12 0.33 12 0.66 12 1 C11.21625 1.0825 10.4325 1.165 9.625 1.25 C6.85250896 1.72806339 6.85250896 1.72806339 5.6875 4.0625 C5.460625 4.701875 5.23375 5.34125 5 6 C3.35 4.02 1.7 2.04 0 0 Z " fill="#98B5AA" transform="translate(711,234)"/>
<path d="M0 0 C-1.75 3.875 -1.75 3.875 -4 5 C-5.54023996 5.06950541 -7.08334988 5.08452357 -8.625 5.0625 C-9.85089844 5.04896484 -9.85089844 5.04896484 -11.1015625 5.03515625 C-12.04128906 5.01775391 -12.04128906 5.01775391 -13 5 C-10.54278328 3.36185552 -8.65432189 2.38047801 -5.9375 1.375 C-5.24527344 1.11460937 -4.55304687 0.85421875 -3.83984375 0.5859375 C-2 0 -2 0 0 0 Z " fill="#CED2D1" transform="translate(736,501)"/>
<path d="M0 0 C3.65316671 1.24976756 4.78065836 1.67098753 7 5 C7.125 8.1875 7.125 8.1875 7 11 C6.608125 10.46375 6.21625 9.9275 5.8125 9.375 C3.6244612 6.50791468 1.32120704 3.76035432 -1 1 C-0.67 0.67 -0.34 0.34 0 0 Z " fill="#E4E7E7" transform="translate(869,482)"/>
<path d="M0 0 C0.33 0 0.66 0 1 0 C1.66 3.96 2.32 7.92 3 12 C2.01 12 1.02 12 0 12 C-1.1898306 9.6203388 -1.13349966 8.08514265 -1.125 5.4375 C-1.12886719 4.22900391 -1.12886719 4.22900391 -1.1328125 2.99609375 C-1 1 -1 1 0 0 Z " fill="#DEE1E2" transform="translate(819,489)"/>
<path d="M0 0 C0.33 0 0.66 0 1 0 C1 6.6 1 13.2 1 20 C0.67 20 0.34 20 0 20 C-0.06058594 18.95199219 -0.12117187 17.90398437 -0.18359375 16.82421875 C-0.26801738 15.44529952 -0.35266447 14.06639395 -0.4375 12.6875 C-0.47681641 11.99720703 -0.51613281 11.30691406 -0.55664062 10.59570312 C-0.74927415 7.52838465 -1.02322717 4.93031848 -2 2 C-1.34 1.34 -0.68 0.68 0 0 Z " fill="#555D5E" transform="translate(596,477)"/>
<path d="M0 0 C0 0.66 0 1.32 0 2 C0.66 2.33 1.32 2.66 2 3 C0.71937515 4.7074998 -0.61767557 6.37373596 -2 8 C-2.66 8 -3.32 8 -4 8 C-4 5.69 -4 3.38 -4 1 C-2 0 -2 0 0 0 Z " fill="#5EA1CA" transform="translate(689,302)"/>
<path d="M0 0 C1 2 1 2 0.4375 4.3125 C-1.47539467 7.88878134 -3.78248866 9.55189355 -7 12 C-5.44298069 7.32894208 -2.91552627 3.91294315 0 0 Z " fill="#466985" transform="translate(654,283)"/>
<path d="M0 0 C1.32 0.99 2.64 1.98 4 3 C1.69 4.65 -0.62 6.3 -3 8 C-3 5.35220307 -2.82804069 3.48412207 -2 1 C-1.34 0.67 -0.68 0.34 0 0 Z " fill="#5D6A74" transform="translate(595,240)"/>
<path d="M0 0 C0.66 0 1.32 0 2 0 C1.34 3.63 0.68 7.26 0 11 C-0.66 11 -1.32 11 -2 11 C-2.25 3.375 -2.25 3.375 0 0 Z " fill="#DBDBDC" transform="translate(743,486)"/>
<path d="M0 0 C0.99 0.33 1.98 0.66 3 1 C3 3 3 3 1.5 4.625 C1.005 5.07875 0.51 5.5325 0 6 C-1.32 5.34 -2.64 4.68 -4 4 C-2.68 3.34 -1.36 2.68 0 2 C0 1.34 0 0.68 0 0 Z " fill="#68B1D8" transform="translate(686,237)"/>
<path d="M0 0 C0.33 0.99 0.66 1.98 1 3 C-1 5 -1 5 -4.625 5.125 C-5.73875 5.08375 -6.8525 5.0425 -8 5 C-8 4.34 -8 3.68 -8 3 C-7.05125 2.690625 -6.1025 2.38125 -5.125 2.0625 C-2.13919592 1.12605258 -2.13919592 1.12605258 0 0 Z " fill="#E5E6E7" transform="translate(913,510)"/>
<path d="M0 0 C0.99 0.33 1.98 0.66 3 1 C1.75023244 4.65316671 1.32901247 5.78065836 -2 8 C-2.66 7.34 -3.32 6.68 -4 6 C-3.525625 5.566875 -3.05125 5.13375 -2.5625 4.6875 C-0.76313043 2.97690387 -0.76313043 2.97690387 0 0 Z " fill="#CED1D1" transform="translate(836,497)"/>
<path d="M0 0 C0.33 0 0.66 0 1 0 C1 1.98 1 3.96 1 6 C-1.31 6.66 -3.62 7.32 -6 8 C-5.02471263 6.66382648 -4.04466681 5.3311249 -3.0625 4 C-2.24458984 2.88625 -2.24458984 2.88625 -1.41015625 1.75 C-0.94480469 1.1725 -0.47945312 0.595 0 0 Z " fill="#6DAA9D" transform="translate(658,353)"/>
<path d="M0 0 C0.99 0.66 1.98 1.32 3 2 C-0.3 3.32 -3.6 4.64 -7 6 C-6.67 4.68 -6.34 3.36 -6 2 C-3.125 0.625 -3.125 0.625 0 0 Z " fill="#5C6E77" transform="translate(606,236)"/>
<path d="M0 0 C0.33 0 0.66 0 1 0 C1.125 7.75 1.125 7.75 0 10 C-0.66 10 -1.32 10 -2 10 C-2.1953125 3.9453125 -2.1953125 3.9453125 -2 2 C-1.34 1.34 -0.68 0.68 0 0 Z " fill="#DADEDE" transform="translate(876,489)"/>
<path d="M0 0 C0.9075 0.226875 1.815 0.45375 2.75 0.6875 C3.08 1.6775 3.41 2.6675 3.75 3.6875 C2.76 4.0175 1.77 4.3475 0.75 4.6875 C0.75 4.0275 0.75 3.3675 0.75 2.6875 C-1.89 2.6875 -4.53 2.6875 -7.25 2.6875 C-4.61280971 0.1517401 -3.74095095 -0.35970682 0 0 Z " fill="#CACDCD" transform="translate(898.25,502.3125)"/>
<path d="M0 0 C1.32 0.33 2.64 0.66 4 1 C3.67 1.66 3.34 2.32 3 3 C3.99 3.33 4.98 3.66 6 4 C5.67 4.66 5.34 5.32 5 6 C3.68 5.67 2.36 5.34 1 5 C0.67 3.35 0.34 1.7 0 0 Z " fill="#555D60" transform="translate(533,494)"/>
<path d="M0 0 C2.64 0 5.28 0 8 0 C7.67 0.66 7.34 1.32 7 2 C4.911361 2.67375452 3.19636905 3 1 3 C0.01 3.33 -0.98 3.66 -2 4 C-1.34 2.68 -0.68 1.36 0 0 Z " fill="#656A6C" transform="translate(887,484)"/>
<path d="M0 0 C1.27875 -0.061875 2.5575 -0.12375 3.875 -0.1875 C4.95394531 -0.23970703 4.95394531 -0.23970703 6.0546875 -0.29296875 C6.69664062 -0.19628906 7.33859375 -0.09960938 8 0 C8.66 0.99 9.32 1.98 10 3 C2.25 3.125 2.25 3.125 0 2 C0 1.34 0 0.68 0 0 Z " fill="#C9CDCE" transform="translate(884,513)"/>
<path d="M0 0 C0.66 0.66 1.32 1.32 2 2 C2.99 1.67 3.98 1.34 5 1 C5 2.65 5 4.3 5 6 C3.35 6 1.7 6 0 6 C0 4.02 0 2.04 0 0 Z " fill="#DFE0DF" transform="translate(632,483)"/>
<path d="M0 0 C5.625 -0.25 5.625 -0.25 9 2 C9 2.99 9 3.98 9 5 C8.1646875 4.566875 8.1646875 4.566875 7.3125 4.125 C4.91505355 2.9586747 2.48403061 1.9660119 0 1 C0 0.67 0 0.34 0 0 Z " fill="#D4D6D8" transform="translate(751,482)"/>
<path d="M0 0 C0.66 0.33 1.32 0.66 2 1 C0.35 2.98 -1.3 4.96 -3 7 C-3.99 6.34 -4.98 5.68 -6 5 C-6 4.34 -6 3.68 -6 3 C-5.38125 2.87625 -4.7625 2.7525 -4.125 2.625 C-1.80879168 2.12802644 -1.80879168 2.12802644 0 0 Z " fill="#5CA5CB" transform="translate(651,345)"/>
<path d="M0 0 C1.32 0.99 2.64 1.98 4 3 C3.34 6.3 2.68 9.6 2 13 C1.67 13 1.34 13 1 13 C0.67 8.71 0.34 4.42 0 0 Z " fill="#B1D2C5" transform="translate(721,253)"/>
<path d="M0 0 C3.01327566 1.50663783 3.61056618 4.03166411 5 7 C4.01 7.33 3.02 7.66 2 8 C0 6 0 6 -0.125 2.875 C-0.08375 1.92625 -0.0425 0.9775 0 0 Z " fill="#D8DCDE" transform="translate(881,506)"/>
<path d="M0 0 C0.99 0 1.98 0 3 0 C4.4783226 2.95664519 4.06032783 5.74229737 4 9 C1.3144406 6.3144406 0.93950026 3.62378672 0 0 Z " fill="#E3E4E4" transform="translate(807,483)"/>
<path d="M0 0 C0.99 0.66 1.98 1.32 3 2 C1.68 3.32 0.36 4.64 -1 6 C-1.33 4.35 -1.66 2.7 -2 1 C-1.34 0.67 -0.68 0.34 0 0 Z " fill="#626869" transform="translate(638,494)"/>
<path d="M0 0 C0.99 0.33 1.98 0.66 3 1 C2.67 2.65 2.34 4.3 2 6 C1.01 5.34 0.02 4.68 -1 4 C-0.67 2.68 -0.34 1.36 0 0 Z " fill="#5B6C6F" transform="translate(440,492)"/>
<path d="M0 0 C1.2077558 3.62326739 0.54311128 4.64146369 -1 8 C-1.66 8 -2.32 8 -3 8 C-3.36923077 3.44615385 -3.36923077 3.44615385 -1.5 1.1875 C-1.005 0.795625 -0.51 0.40375 0 0 Z " fill="#E1E2E3" transform="translate(885,483)"/>
<path d="M0 0 C0.33 0 0.66 0 1 0 C1.33 3.3 1.66 6.6 2 10 C1.01 10.33 0.02 10.66 -1 11 C-1.33 9.68 -1.66 8.36 -2 7 C-1.34 7 -0.68 7 0 7 C0 4.69 0 2.38 0 0 Z " fill="#AEB1B1" transform="translate(743,490)"/>
<path d="M0 0 C0.66 0 1.32 0 2 0 C1.34 2.31 0.68 4.62 0 7 C-0.99 7 -1.98 7 -3 7 C-1.125 1.125 -1.125 1.125 0 0 Z " fill="#CDD1D3" transform="translate(924,481)"/>
<path d="M0 0 C3.375 -0.125 3.375 -0.125 7 0 C7.66 0.66 8.32 1.32 9 2 C6.29120665 3.35439668 3.99066732 3.06501451 1 3 C0.67 2.01 0.34 1.02 0 0 Z " fill="#BCC0C0" transform="translate(800,481)"/>
<path d="M0 0 C2.31 0 4.62 0 7 0 C7.33 1.65 7.66 3.3 8 5 C7.13375 4.319375 7.13375 4.319375 6.25 3.625 C4.2199667 2.15886484 2.26460157 1.05142216 0 0 Z " fill="#D0D3D3" transform="translate(775,482)"/>
</svg>
